<svg height="476pt" viewBox="0 0 476 476.85346" width="476pt" xmlns="http://www.w3.org/2000/svg"><path d="m469.273438 39.753906-25.070313 25.078125-31.757813-31.757812 25.078126-25.070313zm0 0" fill="#00efd1"/><path d="m387.375 58.140625 25.066406-25.066406 31.761719 31.757812-25.070313 25.070313zm0 0" fill="#00acea"/><path d="m362.304688 83.210938 25.070312-25.066407 31.757812 31.757813-25.070312 25.070312zm0 0" fill="#00efd1"/><path d="m337.234375 108.28125 25.070313-25.070312 31.757812 31.761718-25.070312 25.070313zm0 0" fill="#00acea"/><path d="m368.992188 140.042969-25.078126 25.070312-31.75-31.75 25.070313-25.082031zm0 0" fill="#00efd1"/><path d="m360.855469 198.324219-260.140625 260.136719c-13.84375 13.851562-36.296875 13.851562-50.140625 0l-31.761719-31.757813c-13.847656-13.84375-13.847656-36.296875 0-50.140625l260.140625-260.140625 25.070313 25.070313-.21875.21875-76.050782 107.8125 107.808594-76.050782.222656-.21875zm0 0" fill="#fedb41"/><path d="m335.785156 173.253906-.222656.21875-107.808594 76.050782 76.050782-107.8125.21875-.21875zm0 0" fill="#00acea"/><path d="m44.917969 464.121094c16.96875 16.976562 44.484375 16.976562 61.453125 0l260.140625-260.140625c3.125-3.121094 3.125-8.1875 0-11.3125l-19.414063-19.414063 27.523438-27.53125.03125-.027344c.007812-.007812.015625-.019531.023437-.027343l25-25c.015625-.015625.03125-.027344.046875-.042969s.027344-.03125.042969-.046875l24.957031-24.957031c.023438-.019532.046875-.039063.070313-.0625.023437-.019532.039062-.046875.0625-.070313l24.921875-24.925781c.027344-.023438.054687-.046875.082031-.074219.027344-.027343.050781-.054687.078125-.082031l25-25c3.121094-3.125 3.121094-8.191406 0-11.3125l-31.75-31.75c-3.125-3.125-8.191406-3.125-11.3125 0l-24.996094 24.988281c-.03125.027344-.0625.054688-.09375.082031-.027344.03125-.054687.0625-.082031.09375l-24.914063 24.914063c-.023437.023437-.050781.042969-.074218.066406-.023438.023438-.042969.050781-.066406.074219l-24.953126 24.949219c-.015624.015625-.03125.027343-.046874.042969-.019532.015624-.03125.035156-.046876.050781l-24.988281 24.988281-.035156.03125c-.011719.011719-.023437.023438-.035156.035156l-27.519531 27.519532-19.414063-19.414063c-3.121094-3.125-8.1875-3.125-11.3125 0l-260.136719 260.136719c-16.976562 16.96875-16.976562 44.488281 0 61.457031zm292.316406-344.523438 20.445313 20.445313-13.761719 13.761719-20.445313-20.445313zm25.070313-25.070312 20.449218 20.441406-13.757812 13.757812-20.441406-20.441406zm25.070312-25.066406 20.441406 20.4375-13.753906 13.757812-20.441406-20.441406zm25.070312-25.070313 20.441407 20.4375-13.757813 13.757813-20.4375-20.441407zm-89 127.839844-62.457031 44.058593 44.058594-62.460937zm114.078126-152.914063 20.4375 20.4375-13.761719 13.761719-20.4375-20.441406zm-413.050782 362.90625 254.480469-254.488281 14.613281 14.613281-72.347656 102.5625c-2.246094 3.183594-1.875 7.515625.878906 10.269532 2.753906 2.75 7.085938 3.125 10.269532.878906l102.5625-72.347656 14.609374 14.613281-254.484374 254.484375c-10.71875 10.722656-28.105469 10.722656-38.824219 0l-31.761719-31.761719c-10.726562-10.71875-10.726562-28.105469 0-38.824219zm0 0" fill="#083863"/></svg>