<svg id="Layer_1" enable-background="new 0 0 510 510" height="512" viewBox="0 0 510 510" width="512" xmlns="http://www.w3.org/2000/svg"><g><g><g><path d="m502.093 318.121c.236-.91.463-1.826.688-2.743-.222.917-.455 1.83-.688 2.743z" fill="#b1e4f9"/></g><g><path d="m255 0c-98.131 0-158.574 55.347-158.741 55.441-3.787 17.481-10.374 42.85-10.374 61.465 0 140.833 118.763 254.972 259.596 254.972 60.017 0 115.159-27.944 158.719-62.639.178-1.087 5.8-23.477 5.8-54.239 0-140.833-114.167-255-255-255z" fill="#7dbe3b"/></g><g><path d="m345.459 364.679c-140.833 0-255-114.167-255-255 0-18.615 2.013-36.757 5.8-54.239-.006.005-.011.01-.017.014-58.645 46.721-96.242 118.738-96.242 199.546 0 50.5 14.68 97.572 40.005 137.18l38.456 46.829c45.818 43.969 108.023 70.991 176.539 70.991 119.042 0 219.002-81.583 247.094-191.879.233-.913.466-1.826.688-2.743.106-.436 1.068-4.522 1.418-6.139-43.56 34.695-98.725 55.44-158.741 55.44z" fill="#5ea570"/></g></g><g><g><path d="m126.993 322.572-75.041 86.703c8.06 10.589 16.93 20.528 26.515 29.727l79.544-79.544z" fill="#be694f"/></g><g><path d="m187.499 329.971-28.12-28.12-14.522-14.522-29.488 29.487-75.361 75.361c3.752 5.868 7.747 11.563 11.953 17.09l68.103-68.103c5.427-5.427 14.227-5.427 19.654 0l18.293 18.293z" fill="#664545"/></g><g><path d="m98.794 418.675-28.12-28.12 16.686-27.113 17.888-7.461 28.12 28.12z" fill="#ff3c3c"/></g><g><path d="m70.432 341.56h20.537v48.895h-20.537z" fill="#dc1428" transform="matrix(.707 .707 -.707 .707 282.443 50.137)"/></g><g><path d="m187.278 363.092-35.079-35.079-27.738-36.156c-11.963-11.963-6.679-24.894 5.284-36.857l234.715-230.005c19.841-19.841 31.266-16.028 50.202-2.202l44.878 39.506c19.841 19.841 19.841 52.01 0 71.852l-228.94 228.941c-11.963 11.963-31.359 11.963-43.322 0z" fill="#f1d333"/></g><g><path d="m156.675 289.167 228.94-228.941c19.841-19.841 52.01-19.841 71.852 0l-44.939-44.938c-19.841-19.841-52.01-19.841-71.852 0l-228.94 228.94c-11.963 11.963-11.963 31.359 0 43.322l44.938 44.938c-11.962-11.963-11.962-31.358.001-43.321z" fill="#ffa50a"/></g></g><g><path d="m456.988 360.818c-.182-4.943-.89-9.761-2.068-14.398l-7.919-18.844c-11.649-19.178-32.32-32.369-56.016-33.495-13.844-.658-26.851 2.74-37.934 9.108l-3.775 6.379c-35.346 59.725 33.683 127.338 92.126 89.911 5.686-3.641 9.523-7.26 10.892-10.761 3.361-8.598 5.058-18.03 4.694-27.9z" fill="#ff3c3c"/></g><g><path d="m417.74 397.917c-38.352 0-69.442-31.09-69.442-69.442 0-8.919 1.7-17.435 4.763-25.269-20.853 11.982-34.907 34.46-34.907 60.236 0 2.397.121 4.766.359 7.1l4.179 17.643c9.969 26.134 35.268 44.698 64.904 44.698 29.433 0 54.571-18.321 64.679-44.173-10.175 5.847-21.959 9.207-34.535 9.207z" fill="#dc1428"/></g><g><path d="m357.373 392.319c27.959 0 54.338-7.707 74.278-21.7 10.009-7.024 17.841-15.228 23.275-24.2-1.698-6.735-4.375-13.08-7.878-18.871-8.372 28.347-45.397 49.772-89.675 49.772-13.842 0-26.972-2.098-38.743-5.842.671 5.817 2.058 11.414 4.076 16.702 11.013 2.715 22.693 4.139 34.667 4.139z" fill="#fff"/></g><g><path d="m384.985 389.712c-6.319-3.387-12.045-7.727-17.004-12.822-3.483.274-7.019.429-10.609.429-13.842 0-26.972-2.098-38.743-5.842.156 1.355.355 2.696.588 4.026.032.185.065.37.099.555.365 1.991.814 3.953 1.346 5.881.046.166.094.331.141.497.329 1.161.688 2.309 1.075 3.444.047.137.091.274.139.411.221.634.449 1.264.687 1.889 11.013 2.716 22.692 4.14 34.667 4.14 9.452-.001 18.713-.902 27.614-2.608z" fill="#fffad7"/></g></g></svg>