<svg id="Layer_1" enable-background="new 0 0 512 512" height="512" viewBox="0 0 512 512" width="512" xmlns="http://www.w3.org/2000/svg"><g><path d="m390 256c0 60.59-15.57 117.33-34.91 166h-310.18c-19.34-48.67-34.91-105.41-34.91-166 0-78.06 25.84-149.73 52.29-206h275.42c26.45 56.27 52.29 127.94 52.29 206z" fill="#ddb9b6"/><g fill="#ffdcd5"><path d="m380.12 170h-360.24c3.05-13.71 6.7-27.07 10.77-40h338.7c4.07 12.93 7.72 26.29 10.77 40z"/><path d="m380.12 342c-3.05 13.71-6.7 27.07-10.77 40h-338.7c-4.07-12.93-7.72-26.29-10.77-40z"/><path d="m355.09 422c-5.57 14.04-22.38 40-22.38 40h-265.42s-16.81-25.96-22.38-40z"/><circle cx="135.131" cy="267" r="25"/></g><circle cx="371" cy="211" fill="#ffda8f" r="131"/><circle cx="371" cy="211" fill="#fff" r="91"/><g><circle cx="273.51" cy="462" r="10"/><path d="m512 211c0-77.748-63.252-141-141-141-4.412 0-8.774.214-13.084.612-3.487-8.171-7.221-16.504-11.158-24.87-1.649-3.505-5.174-5.742-9.048-5.742h-275.42c-3.875 0-7.401 2.239-9.05 5.746-35.825 76.214-53.24 144.989-53.24 210.254 0 53.845 11.638 109.322 35.579 169.597.012.031.018.063.03.093 3.37 8.39 23.25 41.69 23.29 41.75 1.82 2.81 5.04 4.56 8.39 4.56h161.22c5.51 0 10-4.49 10-10s-4.49-10-10-10h-155.719c-1.92-3.08-10.58-17.71-11.83-20h193.912c.013 0 .026.002.038.002.015 0 84.13-.002 84.13-.002-1.77 3.23-9.73 16.64-11.83 20h-8.7c-5.52 0-10 4.49-10 10s4.48 10 10 10h14.2c3.35 0 6.57-1.75 8.39-4.56.04-.06 19.93-33.36 23.29-41.75.011-.027.017-.056.027-.083 10.103-25.431 18.126-50.512 23.903-74.671 69.606-8.565 123.68-68.051 123.68-139.936zm-244.963 201c1.195-6.474 2.32-13.153 3.367-20h35.501c-1.501 6.805-3.12 13.486-4.844 20zm-57.037 0v-20h40.166c-1.083 6.87-2.245 13.551-3.478 20zm-56.688 0c-1.235-6.462-2.396-13.143-3.474-20h40.162v20zm-54.375 0c-1.729-6.524-3.349-13.206-4.85-20h35.514c1.042 6.835 2.166 13.514 3.362 20zm-60.914-40c-2.013-6.723-3.855-13.388-5.528-20h292.173c.005 0 .01.001.015.001.007 0 .014-.001.021-.001h42.742c-1.669 6.601-3.508 13.27-5.519 20zm.058-232h211.143c-3.727 6.367-6.97 13.05-9.675 20h-206.992c1.672-6.611 3.514-13.276 5.524-20zm103.901-80c-4.864 17.754-9.013 37.856-12.389 60h-35.505c4.777-21.636 10.663-41.745 17.561-60zm48.018 0v60h-40.175c3.523-22.429 7.862-42.533 12.941-60zm47.228 0c5.035 17.361 9.428 37.733 12.937 60h-40.165v-60zm51.122 0c3.608 9.556 6.954 19.667 9.997 30.202-10.659 6.435-20.401 14.24-28.983 23.17-3.168-19.525-6.964-37.377-11.349-53.372zm-10.175 257.041c6.36 5.574 13.224 10.586 20.513 14.959h-21.537c.379-4.925.719-9.916 1.024-14.959zm-21.086 14.959h-47.089v-152h23.441c-2.248 9.979-3.441 20.352-3.441 31 0 32.247 10.89 61.995 29.174 85.776-.489 12.005-1.188 23.802-2.085 35.224zm-172.877 0c-2.79-24.677-4.212-50.194-4.212-76 0-25.814 1.422-51.331 4.211-76h38.629c-1.373 17.998-2.253 36.541-2.626 55.346-11.858 5.611-20.083 17.688-20.083 31.654 0 14.231 8.542 26.497 20.764 31.962.465 11.165 1.118 22.218 1.947 33.038zm50.919-50c-8.271 0-15-6.729-15-15s6.729-15 15-15 15 6.729 15 15-6.729 15-15 15zm7.773 50c-.783-9.99-1.41-20.192-1.876-30.507 16.5-2.812 29.104-17.204 29.104-34.493 0-17.55-12.986-32.121-29.852-34.618.412-17.807 1.287-35.355 2.615-52.382h47.105v152zm-78.822-152c-2.707 24.713-4.082 50.222-4.082 76 0 25.771 1.375 51.28 4.082 76h-36.163c-5.302-25.981-7.919-51.201-7.919-76 0-24.669 2.637-49.925 7.97-76zm427.918 31c0 66.72-54.28 121-121 121s-121-54.28-121-121 54.28-121 121-121 121 54.28 121 121zm-154.399-136.993c-7.273 1.774-14.33 4.106-21.116 6.962-2.145-7.196-4.432-14.193-6.84-20.969h21.69c2.164 4.701 4.251 9.375 6.266 14.007zm-268.933-14.007h21.674c-6.566 18.462-12.162 38.563-16.715 60h-29.129c6.672-19.471 14.716-39.441 24.17-60zm-16.932 352c-2.59-6.73-5.015-13.394-7.283-20h29.171c1.438 6.773 2.992 13.453 4.652 20zm269.984 0c1.656-6.537 3.208-13.217 4.647-20h29.154c-2.27 6.628-4.681 13.296-7.258 20z"/><path d="m371 312c55.691 0 101-45.309 101-101s-45.309-101-101-101-101 45.309-101 101 45.309 101 101 101zm0-182c44.664 0 81 36.336 81 81s-36.336 81-81 81-81-36.336-81-81 36.336-81 81-81z"/><path d="m371.12 252c-5.53.01-9.99 4.5-9.98 10.03.02 5.51 4.49 9.97 10 9.97h.03c5.52-.02 9.99-4.51 9.97-10.03-.01-5.52-4.5-9.99-10.02-9.97z"/><path d="m320 221.29h.06c5.52-.03 9.97-4.54 9.94-10.06s-4.53-9.98-10.05-9.95c-5.53.03-9.98 4.54-9.95 10.06.03 5.5 4.5 9.95 10 9.95z"/><circle cx="422" cy="211" r="10"/><path d="m363.214 217.276c1.935 2.4 4.819 3.725 7.788 3.725 1.096 0 2.204-.181 3.279-.554 3.988-1.385 6.677-5.126 6.718-9.348l.5-51c.054-5.523-4.379-10.043-9.901-10.098-.034 0-.066 0-.1 0-5.477 0-9.944 4.413-9.998 9.902l-.227 23.097-4.655-5.775c-3.466-4.299-9.761-4.977-14.062-1.51-4.3 3.466-4.976 9.761-1.51 14.062z"/></g></g></svg>